<?xml version="1.0" standalone="no"?>
<!DOCTYPE svg PUBLIC "-//W3C//DTD SVG 20010904//EN"
 "http://www.w3.org/TR/2001/REC-SVG-20010904/DTD/svg10.dtd">
<svg version="1.0" xmlns="http://www.w3.org/2000/svg"
 width="300.000000pt" height="300.000000pt" viewBox="0 0 300.000000 300.000000"
 preserveAspectRatio="xMidYMid meet">
<metadata>
Created by potrace 1.10, written by Peter Selinger 2001-2011
</metadata>
<g transform="translate(0.000000,300.000000) scale(0.100000,-0.100000)"
fill="#000000" stroke="none">
<path d="M818 1975 c-14 -14 -35 -51 -48 -82 -35 -92 -167 -434 -231 -602 -32
-85 -59 -160 -59 -166 0 -7 8 -22 19 -33 16 -19 29 -22 94 -22 87 0 100 10
131 97 10 26 25 65 33 86 l16 37 132 0 c94 0 136 -4 143 -12 5 -7 24 -50 42
-95 17 -46 41 -90 53 -98 26 -18 144 -20 181 -4 20 9 29 9 41 -1 21 -18 135
-25 178 -11 64 21 117 68 145 129 l27 57 5 330 5 330 47 -120 c56 -144 126
-329 199 -524 29 -79 64 -157 77 -173 22 -26 29 -28 96 -28 101 0 108 8 179
205 32 88 63 169 67 180 12 27 127 334 156 415 29 80 29 85 4 110 -16 16 -33
20 -90 20 -104 0 -113 -12 -190 -235 -112 -328 -112 -327 -125 -313 -5 5 -44
112 -132 363 -19 55 -35 106 -36 113 0 8 -13 27 -28 43 -25 27 -32 29 -105 29
-65 0 -81 -3 -100 -21 l-23 -21 -27 21 c-37 29 -131 30 -162 1 -21 -20 -22
-29 -24 -208 -3 -456 -3 -456 -22 -485 -15 -22 -26 -27 -60 -27 -41 0 -59 -12
-83 -55 -15 -26 -30 9 -215 500 -26 72 -54 144 -62 160 -7 17 -19 45 -26 63
-21 54 -53 72 -130 72 -58 0 -71 -3 -92 -25z m1131 -83 c52 -151 193 -558 197
-572 3 -8 31 62 64 155 32 94 82 240 112 325 l55 155 81 5 c45 3 82 4 82 3 0
-2 -295 -793 -315 -845 -6 -15 -20 -18 -79 -18 l-72 0 -53 143 c-29 78 -77
205 -107 282 -29 77 -76 202 -104 278 -28 76 -53 144 -56 150 -3 9 20 11 84 9
l88 -3 23 -67z m-915 -47 c23 -60 71 -184 106 -275 34 -91 89 -232 121 -314
33 -81 59 -150 59 -152 0 -3 -37 -4 -82 -2 l-81 3 -40 113 -40 112 -167 0
-167 0 -40 -112 -40 -113 -78 -3 c-71 -3 -77 -1 -73 15 3 10 72 189 153 398
81 209 152 395 158 413 l11 33 78 -3 79 -3 43 -110z m644 -237 c-3 -336 -4
-355 -24 -399 -32 -69 -82 -102 -160 -107 -87 -6 -136 4 -130 26 3 9 10 36 16
59 10 40 12 42 40 36 43 -8 86 13 104 52 14 28 16 83 16 359 l0 326 70 0 71 0
-3 -352z"/>
<path d="M851 1627 c-30 -83 -56 -156 -58 -162 -2 -6 41 -10 117 -10 66 0 120
2 120 4 0 2 -25 69 -55 148 -30 80 -55 151 -55 159 0 40 -20 -1 -69 -139z m84
-24 c9 -27 21 -56 26 -65 5 -10 9 -22 9 -27 0 -16 -69 -25 -95 -13 l-24 11 20
58 c10 32 21 64 24 71 9 24 24 11 40 -35z"/>
</g>
</svg>
